<svg xmlns="http://www.w3.org/2000/svg" xmlns:xlink="http://www.w3.org/1999/xlink" width="1427" height="213" viewBox="0 0 1427 213">
  <defs>
    <filter id="Subtraction_14" x="0" y="0" width="1427" height="213" filterUnits="userSpaceOnUse">
      <feOffset dy="8" input="SourceAlpha"/>
      <feGaussianBlur stdDeviation="8" result="blur"/>
      <feFlood flood-opacity="0.161"/>
      <feComposite operator="in" in2="blur"/>
      <feComposite in="SourceGraphic"/>
    </filter>
  </defs>
  <g transform="matrix(1, 0, 0, 1, 0, 0)" filter="url(#Subtraction_14)">
    <path id="Subtraction_14-2" data-name="Subtraction 14" d="M1145.937,165H20A19.984,19.984,0,0,1,0,145V20A19.983,19.983,0,0,1,20,0H1146.356a24.9,24.9,0,0,0,23.505,16.8,24.9,24.9,0,0,0,23.5-16.8H1359a19.983,19.983,0,0,1,20,20V145a19.983,19.983,0,0,1-20,20H1193.785a24.865,24.865,0,0,0-47.848,0Z" transform="translate(24 16)" fill="#fff"/>
  </g>
</svg>
