<svg xmlns="http://www.w3.org/2000/svg" width="23.91" height="30.952" viewBox="0 0 26.91 33.952">
  <g id="bell" transform="translate(-53.013 0)">
    <path id="Path_8243" data-name="Path 8243" d="M184.9,465.044a5.129,5.129,0,0,0,9.389,0Z" transform="translate(-123.13 -434.155)" fill="#dedede"/>
    <path id="Path_8244" data-name="Path 8244" d="M200.216,3.244a11.537,11.537,0,0,1,3.939.69V3.782A3.787,3.787,0,0,0,200.373,0h-.313a3.787,3.787,0,0,0-3.782,3.782v.15A11.559,11.559,0,0,1,200.216,3.244Z" transform="translate(-133.748)" fill="#dedede"/>
    <path id="Path_8245" data-name="Path 8245" d="M78.9,102.5H54.036a1.013,1.013,0,0,1-1-.777.967.967,0,0,1,.532-1.1,5.276,5.276,0,0,0,1.606-2.183c1.384-2.923,1.674-7.041,1.674-9.981a9.619,9.619,0,0,1,19.239-.038c0,.013,0,.025,0,.038,0,2.94.29,7.058,1.674,9.981a5.275,5.275,0,0,0,1.606,2.183.966.966,0,0,1,.532,1.1A1.013,1.013,0,0,1,78.9,102.5Zm.478-1.87h0Z" transform="translate(0 -73.599)" fill="#dedede"/>
  </g>
</svg>
