<svg xmlns="http://www.w3.org/2000/svg" xmlns:xlink="http://www.w3.org/1999/xlink"
     width="254.042" height="500.016" viewBox="0 0 318.042 564.016">
  <defs>
    <filter id="Subtraction_17" x="0" y="0" width="318.042" height="564.016"
            filterUnits="userSpaceOnUse">
      <feOffset dy="3" input="SourceAlpha"/>
      <feGaussianBlur stdDeviation="3" result="blur"/>
      <feFlood flood-opacity="0.161"/>
      <feComposite operator="in" in2="blur"/>
      <feComposite in="SourceGraphic"/>
    </filter>
  </defs>
  <g transform="matrix(1, 0, 0, 1, 0, 0)" filter="url(#Subtraction_17)">
    <path id="Subtraction_17-2" data-name="Subtraction 17"
          d="M14990.114,24158.014h0l-7.851,0a3.282,3.282,0,0,0-1.285-2.537,4.887,4.887,0,0,0-3.1-1.051c-2.414,0-4.378,1.609-4.378,3.588h-7.852a3.283,3.283,0,0,0-1.283-2.537,4.878,4.878,0,0,0-3.094-1.051c-2.414,0-4.378,1.609-4.378,3.588h-7.851a3.282,3.282,0,0,0-1.285-2.537,4.89,4.89,0,0,0-3.1-1.051c-2.413,0-4.377,1.609-4.377,3.588h-7.852a3.281,3.281,0,0,0-1.284-2.537,4.878,4.878,0,0,0-3.094-1.051c-2.413,0-4.377,1.609-4.377,3.588h-7.852a3.283,3.283,0,0,0-1.283-2.537,4.879,4.879,0,0,0-3.095-1.051c-2.413,0-4.377,1.609-4.377,3.588h-7.857a3.283,3.283,0,0,0-1.283-2.537,4.878,4.878,0,0,0-3.094-1.051c-2.414,0-4.378,1.609-4.378,3.588h-7.852a3.283,3.283,0,0,0-1.283-2.537,4.878,4.878,0,0,0-3.094-1.051c-2.414,0-4.378,1.609-4.378,3.588H14866a3.283,3.283,0,0,0-1.283-2.537,4.878,4.878,0,0,0-3.094-1.051c-2.414,0-4.378,1.609-4.378,3.588h-7.851a3.281,3.281,0,0,0-1.284-2.537,4.878,4.878,0,0,0-3.094-1.051c-2.413,0-4.377,1.609-4.377,3.588h-7.857a3.281,3.281,0,0,0-1.284-2.537,4.878,4.878,0,0,0-3.094-1.051c-2.413,0-4.377,1.609-4.377,3.588h-7.852a3.283,3.283,0,0,0-1.283-2.537,4.879,4.879,0,0,0-3.095-1.051c-2.413,0-4.377,1.609-4.377,3.588h-7.857a3.283,3.283,0,0,0-1.283-2.537,4.878,4.878,0,0,0-3.094-1.051c-2.414,0-4.378,1.609-4.378,3.588h-7.852a3.283,3.283,0,0,0-1.283-2.537,4.878,4.878,0,0,0-3.094-1.051c-2.414,0-4.378,1.609-4.378,3.588h-7.857a3.283,3.283,0,0,0-1.283-2.537,4.878,4.878,0,0,0-3.094-1.051c-2.414,0-4.378,1.609-4.378,3.588h-4.183a13.1,13.1,0,0,0-1.425-5.977,51.955,51.955,0,0,0-8.825-12.045c-4.6-4.6-9.274-7.027-13.517-7.027-.616,0-1.252.035-1.763.066l-.087.006,1.812-113.6c.45.041.922.061,1.4.061a15.5,15.5,0,1,0,0-31c-.438,0-.9.02-1.364.063v-358.42c.549.033,1.2.068,1.849.068a27.092,27.092,0,0,0,16.223-5.041c4.333-3.252,6.72-7.576,6.72-12.172l4.189,0a3.287,3.287,0,0,0,1.283,2.539,4.859,4.859,0,0,0,3.094,1.055c2.414,0,4.378-1.613,4.378-3.6l7.852,0a3.287,3.287,0,0,0,1.283,2.539,4.859,4.859,0,0,0,3.094,1.055c2.413,0,4.377-1.613,4.377-3.6l7.852,0a3.286,3.286,0,0,0,1.285,2.539,4.871,4.871,0,0,0,3.1,1.055c2.413,0,4.377-1.613,4.377-3.6l7.852,0a3.287,3.287,0,0,0,1.283,2.539,4.86,4.86,0,0,0,3.095,1.055c2.413,0,4.377-1.613,4.377-3.6l7.852,0a3.287,3.287,0,0,0,1.283,2.539,4.859,4.859,0,0,0,3.094,1.055c2.417,0,4.384-1.613,4.384-3.6l7.852,0a3.287,3.287,0,0,0,1.283,2.539,4.859,4.859,0,0,0,3.094,1.055c2.414,0,4.378-1.613,4.378-3.6l7.852,0a3.287,3.287,0,0,0,1.283,2.539,4.859,4.859,0,0,0,3.094,1.055c2.414,0,4.378-1.613,4.378-3.6l7.857,0a3.287,3.287,0,0,0,1.283,2.539,4.859,4.859,0,0,0,3.094,1.055c2.413,0,4.377-1.613,4.377-3.6l7.852,0a3.285,3.285,0,0,0,1.284,2.539,4.859,4.859,0,0,0,3.094,1.055c2.413,0,4.377-1.613,4.377-3.6l7.857,0a3.285,3.285,0,0,0,1.284,2.539,4.859,4.859,0,0,0,3.094,1.055c2.413,0,4.377-1.613,4.377-3.6l7.852,0a3.287,3.287,0,0,0,1.283,2.539,4.859,4.859,0,0,0,3.094,1.055c2.414,0,4.378-1.613,4.378-3.6l7.857,0a3.287,3.287,0,0,0,1.283,2.539,4.859,4.859,0,0,0,3.094,1.055c2.414,0,4.378-1.613,4.378-3.6l7.852,0a3.287,3.287,0,0,0,1.283,2.539,4.859,4.859,0,0,0,3.094,1.055c2.414,0,4.378-1.613,4.378-3.6l7.857,0a3.287,3.287,0,0,0,1.283,2.539,4.859,4.859,0,0,0,3.094,1.055c2.413,0,4.377-1.613,4.377-3.6l7.852,0a3.285,3.285,0,0,0,1.284,2.539,4.859,4.859,0,0,0,3.094,1.055c2.413,0,4.377-1.613,4.377-3.6l3.983,0c0,4.6,2.386,8.916,6.72,12.17a27.094,27.094,0,0,0,16.223,5.041V23988.5a15.5,15.5,0,0,0,0,31v114.391c-5.722,0-11.82,3.1-16.735,8.5-4.461,4.9-7.231,10.889-7.231,15.625l-3.983,0a3.283,3.283,0,0,0-1.283-2.537,4.878,4.878,0,0,0-3.094-1.051c-2.414,0-4.378,1.609-4.378,3.588Zm4.378-156.58c-2.414,0-4.378,1.609-4.378,3.588s1.964,3.592,4.378,3.592,4.377-1.611,4.377-3.592S14996.905,24001.434,14994.492,24001.434Zm-16.612,0c-2.414,0-4.378,1.609-4.378,3.588s1.964,3.592,4.378,3.592,4.377-1.611,4.377-3.592S14980.293,24001.434,14977.88,24001.434Zm-16.606,0c-2.414,0-4.378,1.609-4.378,3.588s1.964,3.592,4.378,3.592,4.377-1.611,4.377-3.592S14963.687,24001.434,14961.273,24001.434Zm-16.612,0c-2.413,0-4.377,1.609-4.377,3.588s1.964,3.592,4.377,3.592,4.384-1.611,4.384-3.592S14947.078,24001.434,14944.661,24001.434Zm-16.606,0c-2.413,0-4.377,1.609-4.377,3.588s1.964,3.592,4.377,3.592,4.378-1.611,4.378-3.592S14930.469,24001.434,14928.055,24001.434Zm-16.606,0c-2.413,0-4.377,1.609-4.377,3.588s1.964,3.592,4.377,3.592,4.378-1.611,4.378-3.592S14913.862,24001.434,14911.448,24001.434Zm-16.611,0c-2.414,0-4.378,1.609-4.378,3.588s1.964,3.592,4.378,3.592,4.377-1.611,4.377-3.592S14897.25,24001.434,14894.837,24001.434Zm-16.606,0c-2.414,0-4.378,1.609-4.378,3.588s1.964,3.592,4.378,3.592,4.377-1.611,4.377-3.592S14880.644,24001.434,14878.23,24001.434Zm-16.612,0c-2.414,0-4.378,1.609-4.378,3.588s1.964,3.592,4.378,3.592,4.377-1.611,4.377-3.592S14864.031,24001.434,14861.618,24001.434Zm-16.606,0c-2.413,0-4.377,1.609-4.377,3.588s1.964,3.592,4.377,3.592,4.378-1.611,4.378-3.592S14847.426,24001.434,14845.012,24001.434Zm-16.612,0c-2.413,0-4.377,1.609-4.377,3.588s1.964,3.592,4.377,3.592,4.378-1.611,4.378-3.592S14830.813,24001.434,14828.4,24001.434Zm-16.606,0c-2.417,0-4.383,1.609-4.383,3.588s1.966,3.592,4.383,3.592,4.378-1.611,4.378-3.592S14814.207,24001.434,14811.793,24001.434Zm-16.611,0c-2.414,0-4.378,1.609-4.378,3.588s1.964,3.592,4.378,3.592,4.377-1.611,4.377-3.592S14797.595,24001.434,14795.182,24001.434Zm-16.606,0c-2.417,0-4.384,1.609-4.384,3.588s1.967,3.592,4.384,3.592,4.377-1.611,4.377-3.592S14780.988,24001.434,14778.575,24001.434Zm-16.612,0c-2.414,0-4.378,1.609-4.378,3.588s1.964,3.592,4.378,3.592,4.377-1.611,4.377-3.592S14764.376,24001.434,14761.963,24001.434Z"
          transform="translate(-14718.28 -23606.5)" fill="#fff" stroke="rgba(0,0,0,0)"
          stroke-miterlimit="10" stroke-width="1"/>
  </g>
</svg>
