<svg id="Calendar" xmlns="http://www.w3.org/2000/svg" width="23" height="23" viewBox="0 0 23 23">
  <rect id="Rectangle_557" data-name="Rectangle 557" width="23" height="23" fill="none"/>
  <path id="Path_149" data-name="Path 149" d="M2.875,7.188V20.125h17.25V7.188ZM18.688,2.875h2.875A1.358,1.358,0,0,1,23,4.313v17.25A1.358,1.358,0,0,1,21.563,23H1.438A1.358,1.358,0,0,1,0,21.563V4.313A1.358,1.358,0,0,1,1.438,2.875H4.313V1.438A1.358,1.358,0,0,1,5.75,0,1.358,1.358,0,0,1,7.188,1.438V2.875h8.625V1.438a1.438,1.438,0,0,1,2.875,0ZM17.25,17.25H14.375V14.375H17.25Zm-4.312,0H10.063V14.375h2.875Zm4.313-4.312H14.375V10.063H17.25Zm-4.312,0H10.063V10.063h2.875ZM8.625,17.25H5.75V14.375H8.625Z" fill="#dedede"/>
</svg>
