<svg xmlns="http://www.w3.org/2000/svg" width="32" height="27" viewBox="0 0 25.632 25.635">
  <path id="home-run" d="M24.943,11.149l0,0L14.485.691a2.359,2.359,0,0,0-3.338,0L.7,11.142l-.011.011a2.359,2.359,0,0,0,1.57,4.021q.036,0,.073,0h.417v7.7a2.765,2.765,0,0,0,2.762,2.762H9.6a.751.751,0,0,0,.751-.751V18.85a1.261,1.261,0,0,1,1.26-1.26h2.413a1.261,1.261,0,0,1,1.26,1.26v6.033a.751.751,0,0,0,.751.751h4.091a2.765,2.765,0,0,0,2.762-2.762v-7.7h.386a2.36,2.36,0,0,0,1.67-4.028Zm0,0" transform="translate(0 0.001)" fill="#dedede"/>
</svg>
