<svg xmlns="http://www.w3.org/2000/svg" width="22.305" height="22" viewBox="0 0 28.305 28">
  <g id="Search" transform="translate(0.497)">
    <rect id="Rectangle_176" data-name="Rectangle 176" width="28" height="28" transform="translate(-0.497)" fill="none"/>
    <path id="Path_99" data-name="Path 99" d="M0,25.2l5.735-5.735a11.9,11.9,0,0,1-2.433-7.3,12.166,12.166,0,0,1,24.332,0A12.091,12.091,0,0,1,15.468,24.332a11.9,11.9,0,0,1-7.3-2.433L2.433,27.634ZM24.158,12.166a8.605,8.605,0,0,0-8.69-8.69,8.605,8.605,0,0,0-8.69,8.69,8.605,8.605,0,0,0,8.69,8.69A8.605,8.605,0,0,0,24.158,12.166Z" transform="translate(0.174 0)" fill="#f07"/>
  </g>
</svg>
