<svg xmlns="http://www.w3.org/2000/svg" width="30.573" height="26.517" viewBox="0 0 38.573 34.517">
    <path d="M-7533.507,123.752a3.859,3.859,0,0,1,.207-1.255h-6.442a3.873,3.873,0,0,1,.208,1.255,3.7,3.7,0,0,1-3.617,3.765,3.7,3.7,0,0,1-3.616-3.765,3.859,3.859,0,0,1,.207-1.255h-2.618a1.232,1.232,0,0,1-1.206-1.255,1.233,1.233,0,0,1,1.206-1.257h24a.308.308,0,0,0,.3-.269l.3-2.241h-23.738a2.755,2.755,0,0,1-2.654-2.231l-2.969-14.435a2.9,2.9,0,0,1,.542-2.368,2.663,2.663,0,0,1,2.11-1.048h29.4l.261-1.958A2.762,2.762,0,0,1-7518.938,93h2.305a1.231,1.231,0,0,1,1.206,1.255,1.231,1.231,0,0,1-1.206,1.255h-2.305a.3.3,0,0,0-.3.271l-.406,3.03a.023.023,0,0,0,0,.011L-7522,116.395a.007.007,0,0,1,0,0l-.489,3.665a2.766,2.766,0,0,1-2.688,2.434h-1.306a3.859,3.859,0,0,1,.207,1.255,3.7,3.7,0,0,1-3.615,3.765A3.7,3.7,0,0,1-7533.507,123.752Z"
          transform="translate(7554 -93)" fill="#dedede"/>
</svg>
