<svg id="wallet_1_" data-name="wallet (1)" xmlns="http://www.w3.org/2000/svg" width="32.435" height="25.437" viewBox="0 0 40.435 33.437">
  <g id="Group_3709" data-name="Group 3709" transform="translate(0 0)">
    <g id="Group_3708" data-name="Group 3708">
      <path id="Path_8239" data-name="Path 8239" d="M29.549,55.194H40.435V50.14A5.839,5.839,0,0,0,34.6,44.308H5.832A5.839,5.839,0,0,0,0,50.14V71.913a5.839,5.839,0,0,0,5.832,5.832H34.6a5.839,5.839,0,0,0,5.832-5.832V66.858H29.549a5.832,5.832,0,1,1,0-11.664Z" transform="translate(0 -44.308)" fill="#dedede"/>
    </g>
  </g>
  <g id="Group_3711" data-name="Group 3711" transform="translate(26.05 13.219)">
    <g id="Group_3710" data-name="Group 3710">
      <path id="Path_8240" data-name="Path 8240" d="M333.345,211.692a3.5,3.5,0,1,0,0,7h10.886v-7H333.345Zm1.555,4.666h-1.555a1.166,1.166,0,1,1,0-2.333H334.9a1.166,1.166,0,0,1,0,2.333Z" transform="translate(-329.846 -211.692)" fill="#dedede"/>
    </g>
  </g>
</svg>
